# xmcd
#
# Track frame offsets: 
#        150
#        10893
#        22019
#        35206
#        45728
#        60225
#        72676
#        84877
#        98948
#        112406
#        125920
#        136782
#        150450
#        163039
#        177298
#        190552
#        201917
#        216075
#        229328
#        241896
#
# Disc length: 3409 seconds
#
# Revision: 0
# Processed by: cddbd v1.5.2PL0 Copyright (c) Steve Scherf et al.
# Submitted via: ExactAudioCopy v1.0b4
#
DISCID=1d0d4f14
DTITLE=201 Blues Hits - CD 7
DYEAR=2013
DGENRE=Blues
TTITLE0=B.B. King - Treat Me Right
TTITLE1=Screamin' Jay Hawkins - I Put A Spell On You
TTITLE2=Junior Wells - Junior's Wale
TTITLE3=LC Green - Little School Girl
TTITLE4=Kansas Joe McCoy - When The Levee Breaks
TTITLE5=Little Walter - Juke
TTITLE6=John Lee Hooker - Love Money Can't Buy
TTITLE7=Muddy Waters - I Be's Troubled
TTITLE8=B.B. King - Troubles, Troubles, Troubles
TTITLE9=Bobby Bland - Further Up The Road
TTITLE10=Little Walter and His Jukes - Who
TTITLE11=Memphis Minnie - Man Won't Give Me Money
TTITLE12=Bo Diddley - Bo Diddley
TTITLE13=B.B. King - Things Are Not The Same
TTITLE14=Sunnyland Slim - Woman Trouble
TTITLE15=T Bone Walker - Wanderin' Heart
TTITLE16=Charlie Patton - Spoonful Blues
TTITLE17=Bukka White - Special Steam Lines
TTITLE18=John Lee Hooker - Miss Sadie May
TTITLE19=Little Walter - Your So Fine
EXTD=
EXTT0=
EXTT1=
EXTT2=
EXTT3=
EXTT4=
EXTT5=
EXTT6=
EXTT7=
EXTT8=
EXTT9=
EXTT10=
EXTT11=
EXTT12=
EXTT13=
EXTT14=
EXTT15=
EXTT16=
EXTT17=
EXTT18=
EXTT19=
PLAYORDER=
